<?xml version="1.0" encoding="UTF-8" standalone="no"?>
<!-- Created with Inkscape (http://www.inkscape.org/) -->

<svg
   xmlns:dc="http://purl.org/dc/elements/1.1/"
   xmlns:cc="http://creativecommons.org/ns#"
   xmlns:rdf="http://www.w3.org/1999/02/22-rdf-syntax-ns#"
   xmlns:svg="http://www.w3.org/2000/svg"
   xmlns="http://www.w3.org/2000/svg"
   xmlns:xlink="http://www.w3.org/1999/xlink"
   xmlns:sodipodi="http://sodipodi.sourceforge.net/DTD/sodipodi-0.dtd"
   xmlns:inkscape="http://www.inkscape.org/namespaces/inkscape"
   width="744.09448819"
   height="1052.3622047"
   id="svg6231"
   version="1.1"
   inkscape:version="0.48.4 r9939"
   sodipodi:docname="logo2.svg">
  <defs
     id="defs6233">
    <inkscape:perspective
       sodipodi:type="inkscape:persp3d"
       inkscape:vp_x="-241.33567 : 28.406265 : 1"
       inkscape:vp_y="0 : 110.22756 : 0"
       inkscape:vp_z="136.4432 : 96.117476 : 1"
       inkscape:persp3d-origin="-200.15041 : 9.0730459 : 1"
       id="perspective6933" />
    <linearGradient
       id="linearGradient6901">
      <stop
         id="stop6909"
         offset="0"
         style="stop-color:#ffffff;stop-opacity:0;" />
      <stop
         style="stop-color:#498bda;stop-opacity:0.24615385;"
         offset="1"
         id="stop6915" />
    </linearGradient>
    <linearGradient
       id="linearGradient6891">
      <stop
         id="stop6899"
         offset="0"
         style="stop-color:#0000ff;stop-opacity:0.49803922;" />
      <stop
         style="stop-color:#0000ff;stop-opacity:0;"
         offset="1"
         id="stop6895" />
    </linearGradient>
    <radialGradient
       inkscape:collect="always"
       xlink:href="#linearGradient6901"
       id="radialGradient7057"
       gradientUnits="userSpaceOnUse"
       cx="-1048.5714"
       cy="198.07646"
       fx="-1048.5714"
       fy="198.07646"
       r="365.07101" />
  </defs>
  <sodipodi:namedview
     id="base"
     pagecolor="#ffffff"
     bordercolor="#666666"
     borderopacity="1.0"
     inkscape:pageopacity="0.0"
     inkscape:pageshadow="2"
     inkscape:zoom="0.35"
     inkscape:cx="281.69558"
     inkscape:cy="850.67695"
     inkscape:document-units="px"
     inkscape:current-layer="layer1"
     showgrid="false"
     inkscape:window-width="1615"
     inkscape:window-height="1026"
     inkscape:window-x="65"
     inkscape:window-y="24"
     inkscape:window-maximized="1" />
  <metadata
     id="metadata6236">
    <rdf:RDF>
      <cc:Work
         rdf:about="">
        <dc:format>image/svg+xml</dc:format>
        <dc:type
           rdf:resource="http://purl.org/dc/dcmitype/StillImage" />
        <dc:title></dc:title>
      </cc:Work>
    </rdf:RDF>
  </metadata>
  <g
     inkscape:label="Layer 1"
     inkscape:groupmode="layer"
     id="layer1">
    <path
       style="opacity:0;fill:#0000ff;fill-opacity:0.56164383;stroke:#000000;stroke-width:29.85142899;stroke-linejoin:round;stroke-miterlimit:4;stroke-opacity:1;stroke-dasharray:none;stroke-dashoffset:0"
       d="M 124.81573,458.06095 C 109.29303,451.13059 95.233187,414.78117 95.205486,381.50851 95.158988,325.65633 107.9079,275.11292 138.83889,208.52265 l 14.92209,-32.12525 17.85714,-0.0176 c 9.82143,-0.01 17.85715,0.64667 17.85715,1.45855 0,0.81189 -7.24312,15.91852 -16.09581,33.57029 -26.37821,52.59665 -35.00736,79.98591 -40.42047,128.2962 -5.48267,48.93098 -3.43008,68.85692 9.86424,95.75939 7.02523,14.21629 9.91236,17.20425 20.01775,20.71683 32.45227,11.28025 63.81551,-20.8583 63.76121,-65.33744 -0.024,-19.67282 -4.64781,-32.52314 -15.85444,-44.06224 l -10.11898,-10.41919 9.42324,-0.0438 c 7.45714,-0.0346 8.52906,-0.68012 5.13754,-3.09376 -3.21726,-2.28963 -1.49691,-2.66056 6.90052,-1.48787 7.34046,1.02509 14.54575,4.78997 20.95806,10.95091 15.0614,14.47099 18.79227,23.87631 19.02468,47.96019 0.26674,27.6438 -9.88946,50.5172 -27.65728,62.28855 -11.24719,7.45139 -13.14076,7.73516 -56.14714,8.41485 -33.2057,0.5248 -46.77887,-0.31072 -53.45266,-3.29035 l 0,0 z"
       id="path6755"
       inkscape:connector-curvature="0" />
    <path
       style="opacity:0;fill:#0000ff;fill-opacity:0.56164383;stroke:#000000;stroke-width:29.85142899;stroke-linejoin:round;stroke-miterlimit:4;stroke-opacity:1;stroke-dasharray:none;stroke-dashoffset:0"
       d="M 124.81573,458.06095 C 109.29303,451.13059 95.233187,414.78117 95.205486,381.50851 95.158988,325.65633 107.9079,275.11292 138.83889,208.52265 l 14.92209,-32.12525 17.85714,-0.0176 c 9.82143,-0.01 17.85715,0.64667 17.85715,1.45855 0,0.81189 -7.24312,15.91852 -16.09581,33.57029 -26.37821,52.59665 -35.00736,79.98591 -40.42047,128.2962 -5.48267,48.93098 -3.43008,68.85692 9.86424,95.75939 7.02523,14.21629 9.91236,17.20425 20.01775,20.71683 32.45227,11.28025 63.81551,-20.8583 63.76121,-65.33744 -0.024,-19.67282 -4.64781,-32.52314 -15.85444,-44.06224 l -10.11898,-10.41919 9.42324,-0.0438 c 7.45714,-0.0346 8.52906,-0.68012 5.13754,-3.09376 -3.21726,-2.28963 -1.49691,-2.66056 6.90052,-1.48787 7.34046,1.02509 14.54575,4.78997 20.95806,10.95091 15.0614,14.47099 18.79227,23.87631 19.02468,47.96019 0.26674,27.6438 -9.88946,50.5172 -27.65728,62.28855 -11.24719,7.45139 -13.14076,7.73516 -56.14714,8.41485 -33.2057,0.5248 -46.77887,-0.31072 -53.45266,-3.29035 l 0,0 z"
       id="path6757"
       inkscape:connector-curvature="0" />
    <g
       id="g7039"
       transform="matrix(0.13953088,0,0,0.13893658,297.88398,908.43962)">
      <path
         transform="matrix(0.69539152,0,0,0.69539152,-428.91338,169.84547)"
         d="m -694.28571,198.07646 c 0,195.66659 -158.61911,354.28571 -354.28569,354.28571 -195.6666,0 -354.2857,-158.61912 -354.2857,-354.28571 0,-195.6665905 158.6191,-354.2857 354.2857,-354.2857 195.66658,0 354.28569,158.6191095 354.28569,354.2857 z"
         sodipodi:ry="354.28571"
         sodipodi:rx="354.28571"
         sodipodi:cy="198.07646"
         sodipodi:cx="-1048.5714"
         id="path6759"
         style="fill:url(#radialGradient7057);fill-opacity:1;stroke:#808080;stroke-width:21.57058144;stroke-linejoin:round;stroke-miterlimit:4;stroke-opacity:1;stroke-dasharray:none;stroke-dashoffset:0"
         sodipodi:type="arc" />
      <g
         inkscape:corner7="-0.85401735 : 0.13777318 : 0.48706209 : 1"
         inkscape:corner0="-0.84893675 : 0.15071706 : 0 : 1"
         inkscape:perspectiveID="#perspective6933"
         id="g6991"
         style="fill:#804405;fill-opacity:0.63013695;stroke:#808080;stroke-width:50;stroke-linejoin:round;stroke-miterlimit:4;stroke-opacity:1;stroke-dasharray:none;stroke-dashoffset:0"
         sodipodi:type="inkscape:box3d">
        <path
           d="m -1910.5719,1029.0102 68.0027,6.8763 527.4546,-532.27435 -20.2977,2.61002 z"
           inkscape:box3dsidetype="13"
           style="fill:#804405;fill-opacity:0.63013695;fill-rule:evenodd;stroke:none"
           id="path7001"
           sodipodi:type="inkscape:box3dside" />
        <path
           d="m -1910.5719,961.03052 0,67.97968 575.1596,-522.78803 0,-16.09282 z"
           inkscape:box3dsidetype="6"
           style="fill:#804405;fill-opacity:0.63013695;fill-rule:evenodd;stroke:none"
           id="path6993"
           sodipodi:type="inkscape:box3dside" />
        <path
           d="m -1335.4123,490.12935 20.2977,-2.73918 0,16.22198 -20.2977,2.61002 z"
           inkscape:box3dsidetype="11"
           style="fill:#804405;fill-opacity:0.63013695;fill-rule:evenodd;stroke:none"
           id="path7003"
           sodipodi:type="inkscape:box3dside" />
        <path
           d="m -1910.5719,961.03052 68.0027,4.51039 527.4546,-478.15074 -20.2977,2.73918 z"
           inkscape:box3dsidetype="5"
           style="fill:#804405;fill-opacity:0.63013695;fill-rule:evenodd;stroke:none"
           id="path6995"
           sodipodi:type="inkscape:box3dside" />
        <path
           d="m -1842.5692,965.54091 0,70.34559 527.4546,-532.27435 0,-16.22198 z"
           inkscape:box3dsidetype="14"
           style="fill:#804405;fill-opacity:0.63013695;fill-rule:evenodd;stroke:none"
           id="path6999"
           sodipodi:type="inkscape:box3dside" />
        <path
           d="m -1910.5719,961.03052 68.0027,4.51039 0,70.34559 -68.0027,-6.8763 z"
           inkscape:box3dsidetype="3"
           style="fill:#804405;fill-opacity:0.63013695;fill-rule:evenodd;stroke:none"
           id="path6997"
           sodipodi:type="inkscape:box3dside" />
      </g>
      <text
         sodipodi:linespacing="125%"
         id="text7019"
         y="152.13506"
         x="-1875.663"
         style="font-size:257.81341553px;font-style:normal;font-weight:normal;line-height:125%;letter-spacing:0px;word-spacing:0px;fill:#000000;fill-opacity:1;stroke:none;font-family:Sans"
         xml:space="preserve"><tspan
           y="152.13506"
           x="-1875.663"
           id="tspan7021"
           sodipodi:role="line">Info</tspan></text>
      <text
         sodipodi:linespacing="125%"
         id="text7027"
         y="417.62952"
         x="-2151.3682"
         style="font-size:293.33505249px;font-style:normal;font-weight:normal;line-height:125%;letter-spacing:0px;word-spacing:0px;fill:#000000;fill-opacity:1;stroke:none;font-family:Sans"
         xml:space="preserve"><tspan
           y="417.62952"
           x="-2151.3682"
           id="tspan7029"
           sodipodi:role="line">Cana</tspan></text>
      <text
         transform="scale(1.0250932,0.97552105)"
         sodipodi:linespacing="125%"
         id="text7031"
         y="440.21689"
         x="-1352.156"
         style="font-size:353.73782349px;font-style:normal;font-weight:normal;line-height:125%;letter-spacing:0px;word-spacing:0px;fill:#000000;fill-opacity:1;stroke:none;font-family:Sans"
         xml:space="preserve"><tspan
           y="440.21689"
           x="-1352.156"
           id="tspan7033"
           sodipodi:role="line">im</tspan></text>
      <text
         sodipodi:linespacing="125%"
         id="text7035"
         y="418.77493"
         x="-916.69702"
         style="font-size:293.33505249px;font-style:normal;font-weight:normal;line-height:125%;letter-spacing:0px;word-spacing:0px;fill:#000000;fill-opacity:1;stroke:none;font-family:Sans"
         xml:space="preserve"><tspan
           y="418.77493"
           x="-916.69702"
           id="tspan7037"
           sodipodi:role="line">itas</tspan></text>
    </g>
  </g>
</svg>
