<?xml version="1.0" encoding="UTF-8" standalone="no"?>
<!-- Created with Inkscape (http://www.inkscape.org/) -->

<svg
   xmlns:dc="http://purl.org/dc/elements/1.1/"
   xmlns:cc="http://creativecommons.org/ns#"
   xmlns:rdf="http://www.w3.org/1999/02/22-rdf-syntax-ns#"
   xmlns:svg="http://www.w3.org/2000/svg"
   xmlns="http://www.w3.org/2000/svg"
   xmlns:xlink="http://www.w3.org/1999/xlink"
   xmlns:sodipodi="http://sodipodi.sourceforge.net/DTD/sodipodi-0.dtd"
   xmlns:inkscape="http://www.inkscape.org/namespaces/inkscape"
   version="1.0"
   width="290.00839"
   height="311.2525"
   id="svg2"
   inkscape:version="0.48.2 r9819"
   sodipodi:docname="stacked_books.svg">
  <metadata
     id="metadata41">
    <rdf:RDF>
      <cc:Work
         rdf:about="">
        <dc:format>image/svg+xml</dc:format>
        <dc:type
           rdf:resource="http://purl.org/dc/dcmitype/StillImage" />
      </cc:Work>
    </rdf:RDF>
  </metadata>
  <sodipodi:namedview
     pagecolor="#ffffff"
     bordercolor="#666666"
     borderopacity="1"
     objecttolerance="10"
     gridtolerance="10"
     guidetolerance="10"
     inkscape:pageopacity="0"
     inkscape:pageshadow="2"
     inkscape:window-width="709"
     inkscape:window-height="810"
     id="namedview39"
     showgrid="false"
     fit-margin-top="0"
     fit-margin-left="0"
     fit-margin-right="0"
     fit-margin-bottom="0"
     inkscape:zoom="0.49166667"
     inkscape:cx="149.19367"
     inkscape:cy="155.20347"
     inkscape:window-x="788"
     inkscape:window-y="0"
     inkscape:window-maximized="0"
     inkscape:current-layer="svg2" />
  <defs
     id="defs4">
    <linearGradient
       id="linearGradient10133">
      <stop
         style="stop-color:#0038d4;stop-opacity:1"
         offset="0"
         id="stop10135" />
      <stop
         style="stop-color:#001c6d;stop-opacity:1"
         offset="1"
         id="stop10137" />
    </linearGradient>
    <linearGradient
       x1="292.83209"
       y1="431.51376"
       x2="277.96576"
       y2="437.51376"
       id="linearGradient14287"
       xlink:href="#linearGradient10133"
       gradientUnits="userSpaceOnUse"
       gradientTransform="matrix(0.9659258,-0.258819,0.258819,0.9659258,9.498277,112.39201)" />
    <linearGradient
       id="linearGradient12435">
      <stop
         style="stop-color:#0ad400;stop-opacity:1"
         offset="0"
         id="stop12437" />
      <stop
         style="stop-color:#046d00;stop-opacity:1"
         offset="1"
         id="stop12439" />
    </linearGradient>
    <linearGradient
       x1="292.83209"
       y1="431.51376"
       x2="277.96576"
       y2="437.51376"
       id="linearGradient14294"
       xlink:href="#linearGradient12435"
       gradientUnits="userSpaceOnUse"
       gradientTransform="matrix(0.9659258,-0.258819,0.258819,0.9659258,-5.501723,169.39201)" />
    <linearGradient
       id="linearGradient12441">
      <stop
         style="stop-color:#d40069;stop-opacity:1"
         offset="0"
         id="stop12443" />
      <stop
         style="stop-color:#6d0036;stop-opacity:1"
         offset="1"
         id="stop12445" />
    </linearGradient>
    <linearGradient
       x1="292.83209"
       y1="431.51376"
       x2="277.96576"
       y2="437.51376"
       id="linearGradient14301"
       xlink:href="#linearGradient12441"
       gradientUnits="userSpaceOnUse"
       gradientTransform="matrix(0.9659258,-0.258819,0.258819,0.9659258,-19.733023,225.24367)" />
  </defs>
  <g
     transform="matrix(0.9781476,-0.14553818,0.18913037,0.68749778,-430.06638,-318.99524)"
     id="layer1">
    <g
       transform="translate(40.730879,269.6438)"
       id="g14305">
      <path
         d="M 241.51965,546.4329 377.93952,735.24212 387.5849,695.00446 257.38388,511.48208 c -5.96732,-1.1516 -16.72643,30.3954 -15.86423,34.95082 z"
         style="color:#000000;fill:#ff86c2;fill-opacity:1;fill-rule:nonzero;stroke:none;stroke-width:5;marker:none;visibility:visible;display:inline;overflow:visible;enable-background:accumulate"
         id="path11123"
         inkscape:connector-curvature="0" />
      <path
         d="m 386.87011,693.96601 c -7.81692,11.86723 -13.17256,24.30818 -8.95601,41.25237 50.91354,-42.10951 100.15725,-83.53874 137.81693,-116.40007 -4.02555,-14.36446 0.20176,-21.14811 4.80679,-33.85639 L 386.87011,693.96601 z"
         style="color:#000000;fill:#ffffff;fill-opacity:1;fill-rule:nonzero;stroke:#080634;stroke-width:0.99999994;stroke-linecap:round;stroke-linejoin:round;stroke-miterlimit:2;stroke-opacity:1;stroke-dasharray:none;stroke-dashoffset:0;marker:none;visibility:visible;display:inline;overflow:visible;enable-background:accumulate"
         id="path11125"
         inkscape:connector-curvature="0" />
      <path
         d="m 381.70652,407.80601 c 3.53737,-2.8941 7.09512,-4.25106 7.97702,-3.04252 43.57185,59.71005 87.14368,119.42012 130.71552,179.13018 0.8819,1.20854 -1.29608,4.45763 -4.79327,7.40547 0,0 -128.69381,103.18251 -128.69381,103.18251 C 343.34013,634.77158 297.58823,573.1456 254.01639,513.43554 286.57424,473.23673 340.86696,441.21881 381.70652,407.80601 z"
         style="color:#000000;fill:url(#linearGradient14301);fill-opacity:1;fill-rule:nonzero;stroke:none;stroke-width:1.99999976;marker:none;visibility:visible;display:inline;overflow:visible;enable-background:accumulate"
         id="path11127"
         inkscape:connector-curvature="0" />
      <path
         d="m 364.30978,663.54702 c -9.74174,8.42886 -10.82358,22.17451 -12.89654,35.31167 L 327.51208,665.1569 c -3.661,-17.08187 4.65019,-26.23845 10.83284,-36.80407 l 25.96486,35.19419 z"
         style="color:#000000;fill:#d40069;fill-opacity:1;fill-rule:nonzero;stroke:none;stroke-width:1;marker:none;visibility:visible;display:inline;overflow:visible;enable-background:accumulate"
         id="path11129"
         inkscape:connector-curvature="0" />
      <path
         d="m 305.91783,584.06857 c -9.74174,8.42885 -9.85272,21.91437 -11.92568,35.05152 L 270.091,585.41831 c -3.66101,-17.08187 3.67932,-25.97831 9.86197,-36.54393 l 25.96486,35.19419 z"
         style="color:#000000;fill:#d40069;fill-opacity:1;fill-rule:nonzero;stroke:none;stroke-width:1;marker:none;visibility:visible;display:inline;overflow:visible;enable-background:accumulate"
         id="path11131"
         inkscape:connector-curvature="0" />
      <path
         d="M 255.75095,490.58124 392.17082,679.39046 401.8162,639.1528 271.61518,455.63041 c -5.96732,-1.15159 -16.72643,30.3954 -15.86423,34.95083 z"
         style="color:#000000;fill:#8cff86;fill-opacity:1;fill-rule:nonzero;stroke:none;stroke-width:5;marker:none;visibility:visible;display:inline;overflow:visible;enable-background:accumulate"
         id="path11137"
         inkscape:connector-curvature="0" />
      <path
         d="m 401.10141,638.11434 c -7.81692,11.86724 -13.17256,24.30818 -8.95601,41.25237 50.91354,-42.10951 100.15725,-83.53874 137.81693,-116.40007 -4.02555,-14.36445 0.20176,-21.14811 4.80679,-33.85639 L 401.10141,638.11434 z"
         style="color:#000000;fill:#ffffff;fill-opacity:1;fill-rule:nonzero;stroke:#080634;stroke-width:0.99999994;stroke-linecap:round;stroke-linejoin:round;stroke-miterlimit:2;stroke-opacity:1;stroke-dasharray:none;stroke-dashoffset:0;marker:none;visibility:visible;display:inline;overflow:visible;enable-background:accumulate"
         id="path11139"
         inkscape:connector-curvature="0" />
      <path
         d="m 395.93782,351.95434 c 3.53737,-2.8941 7.09512,-4.25106 7.97702,-3.04252 43.57185,59.71006 87.14368,119.42013 130.71552,179.13018 0.8819,1.20854 -1.29608,4.45763 -4.79327,7.40548 0,0 -128.69381,103.1825 -128.69381,103.1825 -43.57185,-59.71007 -89.32375,-121.33605 -132.89559,-181.0461 32.55785,-40.19882 86.85057,-72.21674 127.69013,-105.62954 z"
         style="color:#000000;fill:url(#linearGradient14294);fill-opacity:1;fill-rule:nonzero;stroke:none;stroke-width:1.99999976;marker:none;visibility:visible;display:inline;overflow:visible;enable-background:accumulate"
         id="path11141"
         inkscape:connector-curvature="0" />
      <path
         d="m 378.54108,607.69536 c -9.74174,8.42885 -10.82358,22.1745 -12.89654,35.31166 l -23.90116,-33.70178 c -3.661,-17.08188 4.65019,-26.23845 10.83284,-36.80408 l 25.96486,35.1942 z"
         style="color:#000000;fill:#0ad400;fill-opacity:1;fill-rule:nonzero;stroke:none;stroke-width:1;marker:none;visibility:visible;display:inline;overflow:visible;enable-background:accumulate"
         id="path11143"
         inkscape:connector-curvature="0" />
      <path
         d="m 320.14913,528.21691 c -9.74174,8.42885 -9.85272,21.91436 -11.92568,35.05152 L 284.3223,529.56664 c -3.66101,-17.08187 3.67932,-25.9783 9.86197,-36.54393 l 25.96486,35.1942 z"
         style="color:#000000;fill:#0ad400;fill-opacity:1;fill-rule:nonzero;stroke:none;stroke-width:1;marker:none;visibility:visible;display:inline;overflow:visible;enable-background:accumulate"
         id="path11145"
         inkscape:connector-curvature="0" />
      <path
         d="M 270.75095,433.58124 407.17082,622.39046 416.8162,582.1528 286.61518,398.63041 c -5.96732,-1.15159 -16.72643,30.3954 -15.86423,34.95083 z"
         style="color:#000000;fill:#86a6ff;fill-opacity:1;fill-rule:nonzero;stroke:none;stroke-width:5;marker:none;visibility:visible;display:inline;overflow:visible;enable-background:accumulate"
         id="path11153"
         inkscape:connector-curvature="0" />
      <path
         d="m 416.10141,581.11434 c -7.81692,11.86724 -13.17256,24.30818 -8.95601,41.25237 50.91354,-42.10951 100.15725,-83.53874 137.81693,-116.40007 -4.02555,-14.36445 0.20176,-21.14811 4.80679,-33.85639 L 416.10141,581.11434 z"
         style="color:#000000;fill:#ffffff;fill-opacity:1;fill-rule:nonzero;stroke:#080634;stroke-width:0.99999994;stroke-linecap:round;stroke-linejoin:round;stroke-miterlimit:2;stroke-opacity:1;stroke-dasharray:none;stroke-dashoffset:0;marker:none;visibility:visible;display:inline;overflow:visible;enable-background:accumulate"
         id="path11155"
         inkscape:connector-curvature="0" />
      <path
         d="m 410.93782,294.95434 c 3.53737,-2.89409 7.09512,-4.25105 7.97702,-3.04252 43.57185,59.71006 87.14368,119.42013 130.71552,179.13018 0.8819,1.20854 -1.29608,4.45763 -4.79327,7.40548 0,0 -128.69381,103.1825 -128.69381,103.1825 -43.57185,-59.71007 -89.32375,-121.33605 -132.89559,-181.0461 32.55785,-40.19882 86.85057,-72.21674 127.69013,-105.62954 z"
         style="color:#000000;fill:url(#linearGradient14287);fill-opacity:1;fill-rule:nonzero;stroke:none;stroke-width:1.99999976;marker:none;visibility:visible;display:inline;overflow:visible;enable-background:accumulate"
         id="path11157"
         inkscape:connector-curvature="0" />
      <path
         d="m 393.54108,550.69536 c -9.74174,8.42885 -10.82358,22.1745 -12.89654,35.31166 l -23.90116,-33.70178 c -3.661,-17.08188 4.65019,-26.23845 10.83284,-36.80408 l 25.96486,35.1942 z"
         style="color:#000000;fill:#0038d4;fill-opacity:1;fill-rule:nonzero;stroke:none;stroke-width:1;marker:none;visibility:visible;display:inline;overflow:visible;enable-background:accumulate"
         id="path11159"
         inkscape:connector-curvature="0" />
      <path
         d="m 335.14913,471.21691 c -9.74174,8.42885 -9.85272,21.91436 -11.92568,35.05152 L 299.3223,472.56664 c -3.66101,-17.08187 3.67932,-25.9783 9.86197,-36.54393 l 25.96486,35.1942 z"
         style="color:#000000;fill:#0038d4;fill-opacity:1;fill-rule:nonzero;stroke:none;stroke-width:1;marker:none;visibility:visible;display:inline;overflow:visible;enable-background:accumulate"
         id="path11161"
         inkscape:connector-curvature="0" />
      <path
         d="m 360.22005,613.38677 c -0.46237,-0.28815 -0.80206,-0.95504 -0.71538,-1.40453 0.19659,-1.01937 1.73015,-1.54615 2.09913,-0.72105 0.17606,0.39372 0.0606,0.77411 -0.28371,0.93508 -0.25824,0.12071 -0.27783,0.17706 -0.1561,0.44926 0.1128,0.25227 0.23066,0.36641 0.61252,0.34514 0.54058,-0.0301 1.0332,-0.4526 0.98699,-1.03491 -0.0644,-0.42271 -0.56644,-1.27363 -0.98526,-1.66976 -0.24279,-0.22965 -0.26209,-0.22681 -1.14683,0.16883 -1.62472,0.72653 -3.09949,0.8017 -4.61142,0.23504 -1.0739,-0.40249 -1.72579,-0.92022 -2.37234,-1.88413 -1.07337,-1.60016 -0.86119,-6.22809 -0.4653,-7.16537 l 0.13005,-0.55643 c -1.37981,-1.69352 -3.28818,-3.02324 -4.48643,-4.86538 0.9402,-0.97138 3.08675,-0.10897 3.94562,0.36795 0.76057,0.48471 1.26536,1.09584 1.68881,2.04471 0.43942,0.98458 0.51286,1.46481 0.35927,2.34975 l -0.12159,0.70065 0.71854,0.72431 c 0.39519,0.39837 0.76029,0.7299 0.81136,0.73673 0.96636,-0.82179 1.91141,-1.41548 3.22222,-1.5111 0.94861,0.0296 1.9582,0.41295 2.69174,1.0221 0.8483,0.69852 1.38594,1.81935 1.42925,2.91967 -0.004,0.89357 -0.40701,2.24686 -0.90443,3.03707 -0.24009,0.38141 -0.41435,0.74658 -0.38722,0.81147 0.67202,0.80583 1.29201,1.61287 1.30059,2.71377 -0.40617,1.66318 -2.01878,1.98298 -3.36008,1.25113 z m 0.56564,-4.36663 c -0.24033,-0.4228 -0.71602,-0.89823 -1.23991,-0.82903 -1.71005,0.38664 -3.46952,-0.89958 -3.7217,-2.72065 -0.15812,-0.54521 0.12193,-1.07758 0.10278,-1.61143 -0.12707,-0.28418 -1.26297,-1.32405 -1.38615,-1.26897 -0.47785,1.59787 -0.20564,3.53952 0.65637,4.96996 0.99053,1.57645 2.18144,2.19732 3.95831,2.06365 0.67912,-0.0511 1.60208,-0.39276 1.6303,-0.60353 z m -0.2498,-5.95166 c -1.09105,-0.3909 -2.75252,0.0177 -3.10039,1.27013 0,0 0.73537,0.71217 0.73537,0.71217 0.74239,-1.09543 1.89243,-1.10808 2.78707,-0.13709 0.97703,1.30808 -0.17274,2.09269 -0.12409,2.95431 0,0 0.61294,0.63395 0.61294,0.63395 1.45547,-1.8942 1.58313,-3.98644 -0.9109,-5.43347 z m 0.002,2.5465 c -1.15309,-1.99068 -2.30363,0.41827 -0.57984,1.3598 0.65361,0.16443 0.81007,-0.96232 0.57984,-1.3598 z m -1.56994,1.4417 c 0,0 -1.56893,-1.69636 -1.66546,-1.65319 -0.12099,0.0541 0.29266,1.03965 0.53589,1.35192 0.13092,0.16808 1.18801,0.79767 1.12957,0.30127 z m -6.91322,-10.16925 c -0.68216,-0.45672 -2.38256,-0.61524 -2.22689,-0.25581 0.0997,0.23014 3.57058,3.72865 3.65968,3.68881 0.60442,-1.37353 -0.44339,-2.77058 -1.43279,-3.433 z"
         style="fill:#046d00;fill-opacity:1"
         id="path3421"
         inkscape:connector-curvature="0" />
      <path
         d="m 301.16806,512.34941 c 0,0 -8.77811,16.01119 -8.77811,16.01119 0,0 6.98904,6.57067 6.98904,6.57067 0,0 -3.2934,1.99362 -1.29624,4.21629 1.22638,1.36487 2.59682,0.29231 3.18821,-1.06599 0.95032,-2.1827 -1.63188,-4.26873 -1.63188,-4.26873 0,0 -3.80818,-3.89699 -3.80818,-3.89699 0,0 2.18594,-6.88734 2.18594,-6.88734 0,0 5.26869,5.42414 5.26869,5.42414 0,0 -0.41038,-0.6306 -1.59889,0.94897 -1.48567,1.97451 1.47919,4.22594 2.75871,2.19262 1.32202,-2.10083 0.40267,-2.38011 -0.72254,-3.78786 -1.66665,-2.08517 -5.28256,-6.00602 -5.28256,-6.00602 0,0 2.29925,-5.42406 2.29925,-5.42406 0,0 5.93137,4.52595 5.93137,4.52595 0,0 -1.42099,0.72828 -1.99888,1.64416 -1.29686,2.0553 1.2679,3.95728 3.01957,2.58996 1.29587,-1.00976 1.41124,-2.39876 -1.05458,-4.99342 -0.83743,-0.8812 -4.96403,-5.71769 -4.96403,-5.71769 0,0 0.48421,-1.4589 0.48421,-1.4589 0,0 -0.9891,-0.61695 -0.9891,-0.61695 z"
         style="fill:#046d00;fill-opacity:1;stroke:none"
         id="path3416"
         inkscape:connector-curvature="0" />
      <path
         d="m -95.255477,228.83211 -64.674543,-5.69423 51.21859,-32.71954 -14.57,-63.26876 46.945541,38.60088 55.669789,-33.40801 -22.204644,56.57619 48.9758185,42.62147 -60.6687665,-3.63487 -25.401069,59.74953 -15.290716,-58.82266 z"
         transform="matrix(0.1446272,0,0,0.1446272,326.49974,440.06736)"
         style="fill:#001c6d;fill-opacity:1;stroke:none"
         id="path2274"
         inkscape:connector-curvature="0" />
      <use
         transform="translate(58.009267,79.260186)"
         id="use13423"
         x="0"
         y="0"
         width="450"
         height="450"
         xlink:href="#path2274" />
      <path
         d="m 277.20157,579.12009 c 0.11543,-1.3107 0.53674,-2.35726 1.6613,-3.51462 -0.51908,1.24935 -0.55277,2.40784 -0.5738,3.28082 -0.40077,0.14002 -0.70181,0.21145 -1.0875,0.2338 z m 5.65596,-5.8209 c -1.30685,0.15306 -2.34088,0.60425 -3.46543,1.76161 1.2339,-0.55477 2.39093,-0.62173 3.26295,-0.66786 0.12848,-0.40461 0.19124,-0.70761 0.20248,-1.09375 z m -2.02371,3.98974 c -0.59534,0.61273 -1.26071,1.02507 -2.12791,1.40675 0.0332,-1.19204 0.17288,-1.98281 0.52804,-2.9613 l 1.59987,1.55455 z m 0.29769,-0.30636 c 0.59535,-0.61273 0.98842,-1.28967 1.34503,-2.16748 -1.1906,0.0675 -1.97703,0.22981 -2.94491,0.61294 l 1.59988,1.55454 z m -2.78607,2.32245 c -0.40075,0.14003 -0.78549,0.22948 -1.1877,0.26883 -0.022,0.80586 0.005,1.52714 0.23368,2.2455 0.53646,-0.0413 0.93816,-0.11421 1.45567,-0.30623 -0.26206,-0.71787 -0.43951,-1.38663 -0.50165,-2.2081 z m 4.72982,-4.86773 c 0.12845,-0.40466 0.20679,-0.79176 0.23456,-1.19497 0.80492,-0.0451 1.52666,-0.0387 2.25131,0.16905 -0.0259,0.53742 -0.0872,0.94107 -0.26428,1.46389 -0.72511,-0.24135 -1.39867,-0.39948 -2.22159,-0.43797 z m -1.93505,3.14931 c -0.64498,0.66379 -1.55986,1.23077 -2.39401,1.57842 0.0456,0.83847 0.22404,1.57432 0.48511,2.22507 1.46934,-0.52457 2.58363,-1.22868 3.54283,-2.21583 l -1.63393,-1.58766 z m 0.29766,-0.30634 c 0.64499,-0.66381 1.18543,-1.59459 1.50895,-2.43837 0.83944,0.0215 1.58013,0.17868 2.23814,0.42095 -0.48217,1.4838 -1.15395,2.61788 -2.11315,3.60505 l -1.63394,-1.58763 z m -3.93952,4.97387 c 0.53645,-0.0413 1.00481,-0.14868 1.55635,-0.30765 0.20906,0.53403 0.58639,1.09921 0.97983,1.61381 -0.53454,0.17552 -1.10311,0.31795 -1.6556,0.40981 -0.41091,-0.56471 -0.70456,-1.14788 -0.88058,-1.71597 z m 8.50045,-8.74833 c -0.0258,0.53738 -0.11974,1.00864 -0.2628,1.56452 0.53983,0.19362 1.11562,0.55457 1.64131,0.93302 0.16009,-0.53934 0.28609,-1.11176 0.36204,-1.66667 -0.57627,-0.39451 -1.16765,-0.67128 -1.74055,-0.83087 z m -2.13538,6.72687 -2.74529,2.82535 c -0.24998,0.12107 -0.43286,0.24117 -0.69987,0.34571 -0.46148,-0.58075 -0.71969,-1.03016 -0.99633,-1.59676 1.40317,-0.45654 2.58361,-1.22873 3.65857,-2.33504 l 0.78292,0.76074 z m 0.29769,-0.30636 2.74527,-2.82536 c 0.11384,-0.25337 0.22864,-0.4396 0.32545,-0.70951 -0.59376,-0.44461 -1.05042,-0.68979 -1.62475,-0.95004 -0.416,1.4157 -1.15396,2.61787 -2.22891,3.72417 l 0.78294,0.76074 z m -4.94482,5.08903 c -0.22126,-0.21501 -0.39195,-0.41392 -0.58015,-0.66296 0.6527,-0.12686 0.93675,-0.21486 1.67164,-0.46037 l -1.09149,1.12333 z m 9.59193,-9.87169 c -0.22125,-0.21499 -0.42498,-0.3799 -0.67934,-0.56084 -0.10802,0.65607 -0.18784,0.9425 -0.41214,1.68418 l 1.09148,-1.12334 z m -10.90012,13.43161 2.0672,-2.12752 5.48048,5.32518 -2.06721,2.12752 -5.48047,-5.32518 z m 4.11791,-4.23803 2.06724,-2.12752 5.48047,5.32517 -2.06723,2.12755 -5.48048,-5.3252 z m 4.11791,-4.23802 2.06725,-2.1275 5.48049,5.32515 -2.06725,2.12753 -5.48049,-5.32518 z m 4.11796,-4.23803 2.06722,-2.12751 5.48047,5.32517 -2.06721,2.1275 -5.48048,-5.32516 z m -13.69998,12.46488 15.47942,-15.93088 0.52762,0.51269 -15.47941,15.93088 -0.52763,-0.51269 z m 6.58682,6.40017 15.47942,-15.93087 0.52761,0.51266 -15.47941,15.93088 -0.52762,-0.51267 z"
         style="fill:#6d0036;fill-opacity:1"
         id="path8795"
         inkscape:connector-curvature="0" />
      <path
         d="m 342.67235,677.11833 c 0,0 4.0946,-4.83248 4.0946,-4.83248 0,0 0.92569,-1.17964 0.16056,-1.89669 -0.62166,-0.58259 -1.36924,0.76403 -1.7964,0.23437 -0.0986,-0.12223 -0.17972,-0.34513 -0.23878,-0.71382 0.0462,-0.95892 0.60898,-2.04412 1.23425,-2.82688 0.23083,-0.28896 0.46913,-0.52898 0.69412,-0.71379 0.009,-0.009 0.0198,-0.0178 0.0293,-0.0268 0.60701,-0.57442 1.32667,-1.00173 1.93681,-0.95682 1.43366,0.64887 -0.32878,1.64529 0.11674,2.73874 0.32459,0.79668 0.93573,0.44116 1.24566,0.18879 l 4.35085,-5.12387 -3.15131,-4.71279 c -0.14085,-0.34832 -0.33374,-1.11948 0.373,-1.71672 0.94232,-0.79633 1.38793,1.34104 2.16934,-0.67617 0.15117,-0.81449 -0.0472,-1.68396 -0.38239,-2.37666 -0.005,-0.0108 -0.0101,-0.0229 -0.0154,-0.0337 -0.10218,-0.26208 -0.24516,-0.53126 -0.42794,-0.78126 -0.49513,-0.67721 -1.23933,-1.21448 -1.98269,-1.0932 -1.60212,0.78983 -0.055,1.63259 -0.76284,2.77959 -0.70782,1.147 -1.45714,0.14837 -1.45714,0.14837 l -3.02653,-4.49438 -4.3165,5.08341 c -0.31155,0.25198 -0.91804,0.60001 -1.24073,-0.19199 -0.44551,-1.09346 1.31694,-2.08987 -0.11674,-2.73875 -0.61013,-0.0449 -1.33111,0.38396 -1.93812,0.95837 -0.009,0.009 -0.0186,0.0162 -0.028,0.0252 -0.22498,0.1848 -0.46329,0.42483 -0.69411,0.71378 -0.62527,0.78276 -1.1881,1.86796 -1.23425,2.82689 0.31502,1.96628 1.27006,-0.2376 2.03519,0.47944 0.76512,0.71706 -0.16057,1.89669 -0.16057,1.89669 l -4.13389,4.87615 c 0,0 3.04987,4.47984 3.04987,4.47984 0,0 0.74932,0.99864 1.45713,-0.14837 0.70784,-1.147 -0.83928,-1.98976 0.76284,-2.77959 0.74336,-0.12128 1.48757,0.41599 1.9827,1.0932 0.18277,0.25001 0.32576,0.51918 0.42794,0.78127 0.005,0.0107 0.0102,0.0228 0.0154,0.0337 0.33517,0.69268 0.53356,1.56215 0.38239,2.37666 -0.78141,2.01719 -1.22703,-0.12016 -2.16934,0.67615 -0.92744,0.78376 -0.31055,1.85531 -0.29069,1.88927 l 3.04566,4.55478 z"
         style="fill:#6d0036;fill-opacity:1;fill-rule:evenodd;stroke:none"
         id="path1412"
         inkscape:connector-curvature="0" />
    </g>
  </g>
</svg>
